<?xml version="1.0" encoding="UTF-8" standalone="no"?>
<!-- Created with Inkscape (http://www.inkscape.org/) -->

<svg
   xmlns:dc="http://purl.org/dc/elements/1.1/"
   xmlns:cc="http://creativecommons.org/ns#"
   xmlns:rdf="http://www.w3.org/1999/02/22-rdf-syntax-ns#"
   xmlns:svg="http://www.w3.org/2000/svg"
   xmlns="http://www.w3.org/2000/svg"
   xmlns:sodipodi="http://sodipodi.sourceforge.net/DTD/sodipodi-0.dtd"
   xmlns:inkscape="http://www.inkscape.org/namespaces/inkscape"
   width="841mm"
   height="1189mm"
   viewBox="0 0 2979.9213 4212.9921"
   id="svg2"
   version="1.1"
   inkscape:version="0.91 r13725"
   sodipodi:docname="initlab-warning.svg">
  <defs
     id="defs4">
    <path
       id="p"
       transform="matrix(10,0,0,-10,260,260)"
       d="M 2.8117,-1.046 A 3,3 0 0 1 0.5,2.958 V 4.5119 A 10.5,10.5 0 0 1 2,25.3078 v 0.5583 A 15,15 0 0 0 14.7975,8.5433 15,15 0 0 0 23.4007,-11.201 l -0.4835,0.2792 A 10.5,10.5 0 0 1 4.1574,-1.8229 z m 3.4148,8.871 a 10,10 0 0 1 -12.453,0 9.5,9.5 0 0 0 -2.1756,2.7417 13.5,13.5 0 0 0 16.8042,0 A 10,10 0 0 0 6.2265,7.825 z" />
  </defs>
  <sodipodi:namedview
     id="base"
     pagecolor="#ffffff"
     bordercolor="#666666"
     borderopacity="1.0"
     inkscape:pageopacity="0.0"
     inkscape:pageshadow="2"
     inkscape:zoom="0.175"
     inkscape:cx="1067.9696"
     inkscape:cy="2096.0778"
     inkscape:document-units="px"
     inkscape:current-layer="layer1"
     showgrid="false"
     showguides="false"
     inkscape:window-width="1920"
     inkscape:window-height="1016"
     inkscape:window-x="0"
     inkscape:window-y="27"
     inkscape:window-maximized="1" />
  <metadata
     id="metadata7">
    <rdf:RDF>
      <cc:Work
         rdf:about="">
        <dc:format>image/svg+xml</dc:format>
        <dc:type
           rdf:resource="http://purl.org/dc/dcmitype/StillImage" />
        <dc:title></dc:title>
      </cc:Work>
    </rdf:RDF>
  </metadata>
  <g
     inkscape:label="Layer 1"
     inkscape:groupmode="layer"
     id="layer1"
     transform="translate(0,3160.6299)">
    <g
       id="g4147"
       transform="matrix(1.991306,0,0,1.991306,110.99588,-3020.6476)">
      <path
         id="sign_border"
         d="M 597.6,499.6 313.8,8 C 310.9,3 305.6,0 299.9,0 294.2,0 288.9,3.1 286,8 L 2.2,499.6 c -2.9,5 -2.9,11.1 0,16 2.9,5 8.2,8 13.9,8 l 567.6,0 c 5.7,0 11,-3.1 13.9,-8 2.9,-5 2.9,-11.1 0,-16 z"
         inkscape:connector-curvature="0" />
      <polygon
         style="overflow:visible;fill:#f6bd16;fill-opacity:1;stroke:none"
         id="polygon7"
         transform="matrix(1,0,0,0.99591458,0.125,2.0332437)"
         points="555.875,491.5 43.875,491.5 299.875,48.2 " />
      <path
         style="fill:#000000;fill-opacity:1;stroke:#000000;stroke-width:0.62514842;stroke-linecap:square;stroke-miterlimit:4;stroke-dasharray:none;stroke-dashoffset:0;stroke-opacity:0.4"
         id="path1995"
         transform="matrix(0.99319888,0,0,1.0479962,719.28979,-2.9357862)"
         d="m -384.00937,417.52725 a 38.151581,36.156727 0 1 1 -76.30316,0 38.151581,36.156727 0 1 1 76.30316,0 z"
         inkscape:connector-curvature="0" />
      <path
         style="fill:#000000;fill-opacity:1;stroke:#000000;stroke-width:0.88582677;stroke-linecap:square;stroke-miterlimit:4;stroke-dashoffset:0;stroke-opacity:1"
         id="rect1997"
         d="m 300,168.60074 c -20.64745,0 -37.26716,16.97292 -37.26716,38.05658 l 11.01897,133.31318 c 2.10449,17.24457 3.90184,27.0149 11.01898,31.60966 4.64712,2.1172 9.79468,3.32214 15.22921,3.32214 5.40832,0 10.53383,-1.1913 15.16343,-3.28925 7.15697,-4.58178 8.97556,-14.35941 11.08476,-31.64255 l 11.01898,-133.31318 c 0,-21.08366 -16.61973,-38.05658 -37.26717,-38.05658 z"
         inkscape:connector-curvature="0" />
    </g>
    <g
       id="g4696"
       transform="matrix(1.1031048,0,0,1.1031048,-193.42845,-16.735737)">
      <g
         transform="matrix(1.2674752,0,0,1.2674752,-573.73122,-135.37346)"
         id="g4221">
        <path
           inkscape:connector-curvature="0"
           id="sign_border-8"
           d="m 1248.5295,-602.6874 -283.80001,-491.6 c -2.9,-5 -8.2,-8 -13.9,-8 -5.7,0 -11,3.1 -13.9,8 l -283.8,491.6 c -2.9,5 -2.9,11.1 0,16 2.9,5 8.2,8 13.9,8 l 567.60001,0 c 5.7,0 11,-3.1 13.9,-8 2.9,-5 2.9,-11.1 0,-16 z" />
        <polygon
           transform="matrix(1,0,0,0.99591458,651.05449,-1100.2542)"
           style="overflow:visible;fill:#f6bd16;fill-opacity:1;stroke:none"
           id="polygon7-6"
           points="555.875,491.5 43.875,491.5 299.875,48.2 " />
        <path
           style="fill:#000000;fill-opacity:1;fill-rule:evenodd;stroke:#000000;stroke-width:1.04826057px;stroke-linecap:butt;stroke-linejoin:miter;stroke-opacity:1"
           d="m 941.41384,-933.67692 -50.51092,171.94072 73.87885,-38.09379 -15.80744,115.72278 -15.10334,-22.05969 11.64027,72.56433 42.35765,-61.18092 -21.4523,13.33856 44.53949,-163.98217 -79.65069,43.86557 58.29504,-132.17388 -48.18661,0.0585 z"
           id="path1933"
           sodipodi:nodetypes="cccccccccccc"
           inkscape:connector-curvature="0" />
      </g>
      <g
         transform="matrix(1.2674752,0,0,1.2674752,1593.2432,184.79814)"
         id="g4209">
        <path
           inkscape:connector-curvature="0"
           d="M 597.6,499.6 313.8,8 C 310.9,3 305.6,0 299.9,0 294.2,0 288.9,3.1 286,8 L 2.2,499.6 c -2.9,5 -2.9,11.1 0,16 2.9,5 8.2,8 13.9,8 l 567.6,0 c 5.7,0 11,-3.1 13.9,-8 2.9,-5 2.9,-11.1 0,-16 z"
           id="path4193" />
        <polygon
           style="fill:#f6bd16"
           points="555.88,491.5 43.875,491.5 299.88,48.2 "
           transform="matrix(1,0,0,0.99591458,0.125,2.0332437)"
           id="polygon4195" />
        <rect
           style="fill:#000000"
           height="25"
           width="250"
           y="437"
           x="175"
           id="rect4197" />
        <path
           style="fill:none;stroke:#000000;stroke-width:16;stroke-linecap:butt;stroke-linejoin:miter;stroke-miterlimit:4;stroke-dasharray:none"
           inkscape:connector-curvature="0"
           d="M 242.68,415 C 299.54,333.7 182,310.84 240,230"
           stroke-miterlimit="4"
           id="path4199" />
        <path
           style="fill:none;stroke:#000000;stroke-width:16;stroke-linecap:butt;stroke-linejoin:miter;stroke-miterlimit:4;stroke-dasharray:none"
           inkscape:connector-curvature="0"
           d="m 303.78,414.51 c 56.86,-81.3 -60.561,-103.43 -2.561,-184.27"
           stroke-miterlimit="4"
           id="path4201" />
        <path
           style="fill:none;stroke:#000000;stroke-width:16;stroke-linecap:butt;stroke-linejoin:miter;stroke-miterlimit:4;stroke-dasharray:none"
           inkscape:connector-curvature="0"
           d="M 365,415 C 421.86,333.7 305.77,310.35 363.78,229.51"
           stroke-miterlimit="4"
           id="path4203" />
      </g>
      <g
         id="layer2"
         inkscape:label="Ebene 2"
         style="display:inline"
         transform="matrix(1.2518182,0,0,1.2518182,1927.7622,-1904.7376)">
        <path
           style="fill:#000000;fill-opacity:1;stroke:#000000;stroke-width:1px;stroke-linecap:butt;stroke-linejoin:miter;stroke-opacity:1"
           d="m 679.15493,827.01007 c 11.64319,-0.51643 17.37089,-15.39906 13.38028,-23.09859 l -288.87324,-500 c -6.00939,-9.15493 -21.4554,-6.90141 -26.47887,0 L 88.169014,801.37627 c -5.962441,12.01878 1.877935,25.16431 11.267606,25.49295 z"
           id="path3015"
           inkscape:connector-curvature="0"
           sodipodi:nodetypes="ccccccc" />
        <path
           style="display:inline;fill:#f6bd16;fill-opacity:1;stroke:#000000;stroke-width:1px;stroke-linecap:butt;stroke-linejoin:miter;stroke-opacity:1"
           d="M 136.47887,791.37627 390.42254,353.20725 c 0,0 253.94366,436.05634 253.02817,438.23944 z"
           id="path3012"
           inkscape:connector-curvature="0"
           sodipodi:nodetypes="cccc" />
        <path
           style="display:inline;fill:#000000;fill-opacity:1;stroke:#000000;stroke-width:1px;stroke-linecap:butt;stroke-linejoin:miter;stroke-opacity:1"
           d="m 389.71831,497.99599 -76.33803,42.53521 c -2.76995,1.64319 -4.55399,6.24413 -5.35211,10.84507 l -0.42254,59.43662 c 0.23475,8.07512 8.21597,15.44601 14.22536,16.19718 l 71.54929,0 c -10.28169,25.21127 -21.97183,48.59155 -35.91549,70.14085 l -0.14085,68.59154 36.90141,0.28169 0.42254,-139.43662 45.6338,0.70423 c 9.9061,0.23474 8.40376,-19.10799 -0.28169,-18.30986 l -20.28169,0.56338 2.67606,-6.61972 39.29577,0.28169 c 10.89202,0.51643 11.92488,-16.43192 2.25352,-17.04225 l -38.4507,0 1.97183,-6.47887 49.57746,-0.14085 c 9.29577,-0.32864 9.01408,-16.29109 1.69014,-16.61972 l -47.60563,0 2.11268,-6.90141 30.84507,0 c 7.93427,0.84507 8.2629,-17.18309 0.14084,-17.74647 l -104.50704,0.14084 0,-3.52113 c 15.49296,-8.49765 40.98592,-16.00938 30,-36.9014 z"
           id="path3009"
           inkscape:connector-curvature="0"
           sodipodi:nodetypes="ccccccccccccccccccccccccccc" />
        <path
           style="fill:#f6bd16;fill-opacity:1;stroke:#000000;stroke-width:1px;stroke-linecap:butt;stroke-linejoin:miter;stroke-opacity:1"
           d="m 368.4781,557.55095 -15.77564,65.93604 16.68624,0.0655 z"
           id="path2997"
           inkscape:connector-curvature="0"
           sodipodi:nodetypes="cccc" />
        <path
           style="fill:#f6bd16;fill-opacity:1;stroke:#000000;stroke-width:1px;stroke-linecap:butt;stroke-linejoin:miter;stroke-opacity:1"
           d="m 373.32942,607.24285 16.05732,-65.10074 -16.82708,0.0851 z"
           id="path2999"
           inkscape:connector-curvature="0"
           sodipodi:nodetypes="cccc" />
        <path
           style="fill:#f6bd16;fill-opacity:1;stroke:#000000;stroke-width:1px;stroke-linecap:butt;stroke-linejoin:miter;stroke-opacity:1"
           d="m 373.60133,623.90952 16.76154,0.0655 -0.64847,-66.29303 z"
           id="path3001"
           inkscape:connector-curvature="0"
           sodipodi:nodetypes="cccc" />
        <path
           style="fill:#f6bd16;fill-opacity:1;stroke:#000000;stroke-width:1px;stroke-linecap:butt;stroke-linejoin:miter;stroke-opacity:1"
           d="m 394.22829,608.15346 16.76154,-66.22751 -17.53131,0 z"
           id="path3003"
           inkscape:connector-curvature="0"
           sodipodi:nodetypes="cccc" />
        <path
           style="fill:#f6bd16;fill-opacity:1;stroke:#000000;stroke-width:1px;stroke-linecap:butt;stroke-linejoin:miter;stroke-opacity:1"
           d="m 394.28403,624.05037 18.23553,-0.01 -0.77954,-67.49512 z"
           id="path3005"
           inkscape:connector-curvature="0"
           sodipodi:nodetypes="cccc" />
        <path
           style="fill:#f6bd16;fill-opacity:1;stroke:#000000;stroke-width:1px;stroke-linecap:butt;stroke-linejoin:miter;stroke-opacity:1"
           d="m 415.97222,608.64153 16.68623,-66.57474 -17.39046,-0.0655 z"
           id="path3007"
           inkscape:connector-curvature="0"
           sodipodi:nodetypes="cccc" />
      </g>
      <g
         transform="matrix(1.2674752,0,0,1.2674752,1143.5477,-1532.4954)"
         id="g4264">
        <path
           inkscape:connector-curvature="0"
           d="M 597.6,499.6 313.8,8 C 310.9,3 305.6,0 299.9,0 294.2,0 288.9,3.1 286,8 L 2.2,499.6 c -2.9,5 -2.9,11.1 0,16 2.9,5 8.2,8 13.9,8 l 567.6,0 c 5.7,0 11,-3.1 13.9,-8 2.9,-5 2.9,-11.1 0,-16 z"
           id="path4254" />
        <polygon
           style="fill:#f6bd16"
           points="555.88,491.5 43.875,491.5 299.88,48.2 "
           transform="matrix(1,0,0,0.99591458,0.125,2.0332437)"
           id="polygon4256" />
        <path
           inkscape:connector-curvature="0"
           style="color:#000000;fill:#000000;fill-rule:nonzero;enable-background:accumulate"
           d="m 447,350 0,70 -30,0 c -4.886,7.1636 -7.8772,15.129 -30,15 l -125,0 c -10,0 -10,-15 0,-15 l 60,0 0,-5 -80,0 c -10,0 -10,-20 0,-20 l 80,0 0,-3.3247 -95,0 c -12.41,-1.68 -10,-18.84 0,-18.68 l 95,0 0,-4.4175 -85,0 c -10,-0.42 -10,-18.58 0,-18.58 l 85,0 0,-5 -25,0 c -10.336,-2.0356 -16.988,-10.118 -15,-19 l 100,0 c 15.458,-0.37412 29.078,6.6653 35,24 z m -294,90 125,0 0,15 -125,0 z m 0,-110 125,0 0,15 -125,0 z m 55,-85 20,0 0,50 15,0 -25,30 -25,-30 15,0 z"
           id="path4258" />
      </g>
      <g
         transform="matrix(1.2674752,0,0,1.2674752,1145.9307,-673.84869)"
         id="g4392">
        <path
           inkscape:connector-curvature="0"
           d="M 597.6,499.6 313.8,8 C 310.9,3 305.6,0 299.9,0 294.2,0 288.9,3.1 286,8 L 2.2,499.6 c -2.9,5 -2.9,11.1 0,16 2.9,5 8.2,8 13.9,8 l 567.6,0 c 5.7,0 11,-3.1 13.9,-8 2.9,-5 2.9,-11.1 0,-16 z"
           id="sign_border-4" />
        <polygon
           points="299.875,48.2 555.875,491.5 43.875,491.5 "
           transform="matrix(1,0,0,0.99591458,0.125,2.0332437)"
           id="polygon7-60"
           style="overflow:visible;fill:#f6bd16;fill-opacity:1;stroke:none" />
        <g
           transform="translate(685.76837,32.949456)"
           id="g2978">
          <g
             id="g2942"
             style="fill:#000000;stroke:#000000">
            <rect
               width="8.932188"
               height="225.88577"
               x="-392.22946"
               y="208.2478"
               id="rect2934"
               style="fill:#000000;fill-opacity:1;stroke:#000000;stroke-width:0.88582665;stroke-linecap:square;stroke-miterlimit:4;stroke-dasharray:none;stroke-dashoffset:0;stroke-opacity:1" />
            <rect
               width="8.932188"
               height="147.93304"
               x="-462.147"
               y="135.91931"
               transform="matrix(0.965926,-0.258819,0.258819,0.965926,0,0)"
               id="rect2940"
               style="fill:#000000;fill-opacity:1;stroke:#000000;stroke-width:0.88582653;stroke-linecap:square;stroke-miterlimit:4;stroke-dasharray:none;stroke-dashoffset:0;stroke-opacity:1" />
          </g>
          <g
             transform="matrix(0.866025,-0.5,0.5,0.866025,-212.5458,-150.8503)"
             id="g2946"
             style="fill:#000000;stroke:#000000">
            <rect
               width="8.932188"
               height="225.88577"
               x="-392.22946"
               y="208.2478"
               id="rect2948"
               style="fill:#000000;fill-opacity:1;stroke:#000000;stroke-width:0.88582665;stroke-linecap:square;stroke-miterlimit:4;stroke-dasharray:none;stroke-dashoffset:0;stroke-opacity:1" />
            <rect
               width="8.932188"
               height="147.93304"
               x="-462.147"
               y="135.91931"
               transform="matrix(0.965926,-0.258819,0.258819,0.965926,0,0)"
               id="rect2950"
               style="fill:#000000;fill-opacity:1;stroke:#000000;stroke-width:0.88582653;stroke-linecap:square;stroke-miterlimit:4;stroke-dasharray:none;stroke-dashoffset:0;stroke-opacity:1" />
          </g>
          <g
             transform="matrix(0.5,-0.866025,0.866025,0.5,-472.0409,-175.2175)"
             id="g2952"
             style="fill:#000000;stroke:#000000">
            <rect
               width="8.932188"
               height="225.88577"
               x="-392.22946"
               y="208.2478"
               id="rect2954"
               style="fill:#000000;fill-opacity:1;stroke:#000000;stroke-width:0.88582665;stroke-linecap:square;stroke-miterlimit:4;stroke-dasharray:none;stroke-dashoffset:0;stroke-opacity:1" />
            <rect
               width="8.932188"
               height="147.93304"
               x="-462.147"
               y="135.91931"
               transform="matrix(0.965926,-0.258819,0.258819,0.965926,0,0)"
               id="rect2956"
               style="fill:#000000;fill-opacity:1;stroke:#000000;stroke-width:0.88582653;stroke-linecap:square;stroke-miterlimit:4;stroke-dasharray:none;stroke-dashoffset:0;stroke-opacity:1" />
          </g>
          <rect
             width="8.932188"
             height="302.24036"
             x="-325.65689"
             y="-500.70599"
             transform="matrix(2.701365e-7,-1,1,1.508884e-7,0,0)"
             id="rect2960"
             style="fill:#000000;fill-opacity:1;stroke:#000000;stroke-width:0.88582659;stroke-linecap:square;stroke-miterlimit:4;stroke-dasharray:none;stroke-dashoffset:0;stroke-opacity:1" />
          <rect
             width="8.932189"
             height="147.93307"
             x="-214.3521"
             y="-531.64728"
             transform="matrix(-0.258819,-0.965926,0.965926,-0.258819,0,0)"
             id="rect2962"
             style="fill:#000000;fill-opacity:1;stroke:#000000;stroke-width:0.88582665;stroke-linecap:square;stroke-miterlimit:4;stroke-dasharray:none;stroke-dashoffset:0;stroke-opacity:1" />
          <g
             transform="matrix(-0.5,-0.866026,0.866026,-0.5,-859.8043,145.9731)"
             id="g2964"
             style="fill:#000000;stroke:#000000">
            <rect
               width="8.932188"
               height="225.88577"
               x="-392.22946"
               y="208.2478"
               id="rect2966"
               style="fill:#000000;fill-opacity:1;stroke:#000000;stroke-width:0.88582665;stroke-linecap:square;stroke-miterlimit:4;stroke-dasharray:none;stroke-dashoffset:0;stroke-opacity:1" />
            <rect
               width="8.932188"
               height="147.93304"
               x="-462.147"
               y="135.91931"
               transform="matrix(0.965926,-0.258819,0.258819,0.965926,0,0)"
               id="rect2968"
               style="fill:#000000;fill-opacity:1;stroke:#000000;stroke-width:0.88582653;stroke-linecap:square;stroke-miterlimit:4;stroke-dasharray:none;stroke-dashoffset:0;stroke-opacity:1" />
          </g>
          <g
             transform="matrix(-0.866026,-0.500001,0.500001,-0.866026,-884.1717,405.4684)"
             id="g2970"
             style="fill:#000000;stroke:#000000">
            <rect
               width="8.932188"
               height="225.88577"
               x="-392.22946"
               y="208.2478"
               id="rect2972"
               style="fill:#000000;fill-opacity:1;stroke:#000000;stroke-width:0.88582665;stroke-linecap:square;stroke-miterlimit:4;stroke-dasharray:none;stroke-dashoffset:0;stroke-opacity:1" />
            <rect
               width="8.932188"
               height="147.93304"
               x="-462.147"
               y="135.91931"
               transform="matrix(0.965926,-0.258819,0.258819,0.965926,0,0)"
               id="rect2974"
               style="fill:#000000;fill-opacity:1;stroke:#000000;stroke-width:0.88582653;stroke-linecap:square;stroke-miterlimit:4;stroke-dasharray:none;stroke-dashoffset:0;stroke-opacity:1" />
          </g>
        </g>
      </g>
      <g
         transform="matrix(1.2674752,0,0,1.2674752,2040.5556,-673.84869)"
         id="g4446">
        <path
           inkscape:connector-curvature="0"
           d="M 597.6,499.6 313.8,8 C 310.9,3 305.6,0 299.9,0 294.2,0 288.9,3.1 286,8 L 2.2,499.6 c -2.9,5 -2.9,11.1 0,16 2.9,5 8.2,8 13.9,8 l 567.6,0 c 5.7,0 11,-3.1 13.9,-8 2.9,-5 2.9,-11.1 0,-16 z"
           id="path4418" />
        <polygon
           style="fill:#f6bd16"
           points="555.88,491.5 43.875,491.5 299.88,48.2 "
           transform="matrix(1,0,0,0.99591458,0.125,2.0332437)"
           id="polygon4420" />
        <g
           style="fill:#000000"
           transform="translate(659.82936,0)"
           id="g4422">
          <path
             inkscape:connector-curvature="0"
             d="m -277.23,246.32 -14.481,14.481 c 17.404,17.454 28.173,41.528 28.173,68.102 0,26.574 -10.77,50.648 -28.173,68.102 l 14.481,14.481 c 21.105,-21.155 34.149,-50.357 34.149,-82.583 0,-32.226 -13.045,-61.427 -34.149,-82.583 z"
             id="path4424" />
          <path
             inkscape:connector-curvature="0"
             d="m -298.41,270.78 -12.265,12.265 c 11.525,11.578 16.924,28.121 16.924,45.731 0,17.61 -6.7342,34.153 -18.259,45.731 l 13.219,13.41 c 15.055,-15.107 23.778,-37.103 23.778,-60.095 0,-22.992 -8.341,-41.934 -23.396,-57.041 z"
             id="path4426" />
          <path
             inkscape:connector-curvature="0"
             d="m -360,312.36 c -4.6595,0 -8.8605,1.9234 -11.869,5.026 -0.06,0.0617 -0.12264,0.119 -0.18165,0.18163 -0.24512,0.26078 -0.49866,0.51099 -0.72665,0.78721 -0.0461,0.056 -0.0756,0.12502 -0.1211,0.18165 -0.32579,0.40537 -0.62122,0.83632 -0.90832,1.2717 -0.25822,0.39158 -0.50176,0.79727 -0.72666,1.2111 -0.0217,0.04 -0.0391,0.0808 -0.0604,0.12112 -0.48138,0.90308 -0.90206,1.8532 -1.2111,2.8461 -0.16118,0.51801 -0.31361,1.036 -0.4239,1.5744 -0.005,0.0194 0.005,0.0418 0,0.0604 -0.1043,0.51956 -0.18775,1.0385 -0.2422,1.5744 -10e-4,0.0197 10e-4,0.0408 0,0.0604 -0.0527,0.53675 -0.0604,1.0845 -0.0604,1.635 0,0.55931 0.006,1.09 0.0604,1.635 10e-4,0.0197 -10e-4,0.0407 0,0.0604 0.054,0.52463 0.14015,1.0656 0.2422,1.5744 0.11223,0.55866 0.25682,1.0982 0.4239,1.635 0.30903,0.9929 0.72971,1.943 1.2111,2.8461 0.0209,0.0393 0.0393,0.082 0.0604,0.1211 0.22705,0.41918 0.46546,0.81472 0.72666,1.2111 0.2871,0.43536 0.58253,0.86629 0.90832,1.2716 0.3235,0.40249 0.67037,0.78018 1.0294,1.1505 3.0082,3.1026 7.2092,5.026 11.869,5.026 4.6595,0 8.8605,-1.9234 11.869,-5.026 0.0597,-0.0616 0.12278,-0.11914 0.18165,-0.18165 0.24618,-0.26194 0.49775,-0.50966 0.72665,-0.78721 0.046,-0.0559 0.0757,-0.12544 0.1211,-0.18165 0.32578,-0.40533 0.62122,-0.83629 0.90831,-1.2716 0.26121,-0.39636 0.49963,-0.79189 0.72667,-1.2111 0.0215,-0.0391 0.0394,-0.0819 0.0604,-0.12124 0.48138,-0.90308 0.90205,-1.8531 1.2111,-2.8461 0.006,-0.0194 -0.006,-0.042 0,-0.0604 0.14937,-0.49018 0.32007,-1.0055 0.42389,-1.5139 0.005,-0.0196 -0.005,-0.0412 0,-0.0604 0.1022,-0.5088 0.18813,-1.0498 0.2422,-1.5744 10e-4,-0.0197 -0.001,-0.0407 0,-0.0604 0.0541,-0.54493 0.0604,-1.0757 0.0604,-1.635 0,-0.57958 -10e-4,-1.1314 -0.0604,-1.6955 -0.0545,-0.53586 -0.13776,-1.0549 -0.2422,-1.5744 -0.005,-0.0194 0.005,-0.0418 0,-0.0604 -0.10641,-0.51912 -0.27017,-1.0136 -0.42389,-1.5139 -0.006,-0.0194 0.006,-0.042 0,-0.0604 -0.30904,-0.99291 -0.72971,-1.943 -1.2111,-2.8461 -0.0215,-0.0404 -0.039,-0.081 -0.0604,-0.1211 -0.2249,-0.41383 -0.46845,-0.81949 -0.72667,-1.2111 -0.28709,-0.43534 -0.58253,-0.86628 -0.90831,-1.2716 -0.0455,-0.0566 -0.075,-0.12558 -0.1211,-0.18147 -0.28265,-0.34244 -0.59948,-0.65036 -0.90831,-0.96888 -3.0082,-3.1026 -7.2092,-5.026 -11.869,-5.026 z"
             id="path4428" />
          <path
             inkscape:connector-curvature="0"
             d="m -372.11,360.25 -27.155,111.13 78.413,0.19083 -26.997,-110.94 z"
             id="path4430" />
          <path
             inkscape:connector-curvature="0"
             d="m -320.08,291.56 -14.439,14.009 c 4.5805,5.8659 9.326,14.415 9.326,23.304 0,8.8902 -3.7903,18.672 -8.3719,24.528 l 13.104,13.738 c 7.9259,-10.104 14.718,-23.091 14.718,-38.457 0,-15.366 -6.4103,-27.017 -14.336,-37.122 z"
             id="path4432" />
          <g
             transform="matrix(-1,0,0,1,-719.65872,0)"
             id="g4434">
            <path
               inkscape:connector-curvature="0"
               d="m -277.23,246.32 -14.481,14.481 c 17.404,17.454 28.173,41.528 28.173,68.102 0,26.574 -10.77,50.648 -28.173,68.102 l 14.481,14.481 c 21.105,-21.155 34.149,-50.357 34.149,-82.583 0,-32.226 -13.045,-61.427 -34.149,-82.583 z"
               id="path4436" />
            <path
               inkscape:connector-curvature="0"
               d="m -298.41,270.78 -12.265,12.265 c 11.525,11.578 16.924,28.121 16.924,45.731 0,17.61 -6.7342,34.153 -18.259,45.731 l 13.219,13.41 c 15.055,-15.107 23.778,-37.103 23.778,-60.095 0,-22.992 -8.341,-41.934 -23.396,-57.041 z"
               id="path4438" />
            <path
               inkscape:connector-curvature="0"
               d="m -320.08,291.56 -14.439,14.009 c 4.5805,5.8659 9.326,14.415 9.326,23.304 0,8.8902 -3.7903,18.672 -8.3719,24.528 l 13.104,13.738 c 7.9259,-10.104 14.718,-23.091 14.718,-38.457 0,-15.366 -6.4103,-27.017 -14.336,-37.122 z"
               id="path4440" />
          </g>
        </g>
      </g>
      <g
         transform="matrix(1.2674752,0,0,1.2674752,251.30577,-673.84869)"
         id="g4480">
        <path
           inkscape:connector-curvature="0"
           d="M 597.6,499.6 313.8,8 C 310.9,3 305.6,0 299.9,0 294.2,0 288.9,3.1 286,8 L 2.2,499.6 c -2.9,5 -2.9,11.1 0,16 2.9,5 8.2,8 13.9,8 l 567.6,0 c 5.7,0 11,-3.1 13.9,-8 2.9,-5 2.9,-11.1 0,-16 z"
           id="path4464" />
        <polygon
           style="fill:#f6bd16"
           points="555.88,491.5 43.875,491.5 299.88,48.2 "
           transform="matrix(1,0,0,0.99591458,0.125,2.0332437)"
           id="polygon4466" />
        <g
           style="fill:#000000"
           transform="translate(607.44624,0)"
           id="g4468">
          <path
             inkscape:connector-curvature="0"
             d="m -367.48,461.24 c -0.48572,-0.78407 -0.74746,-7.9941 -0.58167,-16.022 l 0.30146,-14.597 61.004,-0.48181 61.004,-0.4818 -0.52985,16.022 -0.52985,16.022 -59.893,0.4819 c -32.941,0.26505 -60.29,-0.15961 -60.776,-0.94368 z"
             id="path4470" />
          <path
             inkscape:connector-curvature="0"
             d="m -397.87,437.69 c -4.3432,-5.5085 -4.7959,-9.6688 -1.5074,-13.853 2.3873,-3.0376 21.22,-18.706 28.444,-23.664 2.2892,-1.5713 7.3126,-5.765 11.163,-9.3192 l 7.0008,-6.4622 0.35467,-23.505 c 0.39309,-26.051 0.6125,-25.93 -9.887,-5.4547 -1.997,3.8943 -5.9098,9.5466 -8.6952,12.561 l -5.0643,5.48 -27.006,-1.1874 c -45.062,-1.9812 -48.592,-2.8421 -50.904,-12.415 -0.93188,-3.8583 -0.13035,-5.995 3.6719,-9.7883 l 4.864,-4.8526 29.672,1.2052 29.672,1.2052 12.828,-21.149 c 7.0554,-11.632 14.065,-22.639 15.577,-24.461 2.5202,-3.0361 23.574,-12.859 41.29,-19.263 3.9999,-1.4461 11.298,-4.4387 16.217,-6.6504 l 8.9449,-4.0212 -7.1123,-4.3175 c -3.9118,-2.3746 -8.3493,-4.8905 -9.8612,-5.5908 -1.5119,-0.70026 -4.9727,-2.8096 -7.6908,-4.6874 -5.5136,-3.8091 -2.3602,-4.7127 -34.005,9.7441 -13.566,6.1975 -18.858,6.5417 -23.41,1.5228 -4.2828,-4.7213 -1.9921,-12.502 4.6558,-15.814 10.744,-5.3532 32.692,-15.06 40.505,-17.915 9.6639,-3.5308 9.6271,-3.5446 42.635,15.947 l 16.275,9.6106 8.9226,21.843 c 8.3876,20.533 10.928,32.467 7.3779,34.656 -2.3471,1.4472 -18.613,29.929 -18.613,32.592 0,1.2825 6.1992,8.9116 13.776,16.954 7.5768,8.042 14.244,16.396 14.816,18.565 1.4539,5.5114 -2.1465,11.329 -7.9031,12.771 -4.3812,1.097 -6.8221,-0.82953 -24.74,-19.527 -10.934,-11.409 -20.324,-22.512 -20.868,-24.673 -0.95138,-3.7817 3.0496,-12.406 13.352,-28.782 l 4.3437,-6.9042 -5.0931,1.219 c -2.8012,0.67042 -7.567,2.5051 -10.591,4.0771 -3.0237,1.572 -11.683,5.3645 -19.242,8.4277 l -13.744,5.5696 -0.44817,13.712 c -0.24648,7.5416 -0.93889,21.282 -1.5387,30.534 l -1.0905,16.821 -14.77,11.517 c -8.1234,6.3342 -16.09,12.796 -17.703,14.36 -1.6133,1.5637 -6.6442,5.6712 -11.18,9.1278 -4.5356,3.4566 -8.5214,6.9079 -8.8574,7.6695 -1.5086,3.4199 -11.198,1.1777 -14.833,-3.4324 z"
             id="path4472" />
          <path
             inkscape:connector-curvature="0"
             d="m -247.5,292.33 c -12.272,-6.3892 -12.738,-25.464 -1.8575,-33.464 8.6391,-7.5671 22.353,-4.3968 28.615,4.5787 5.8864,7.1945 5.1507,18.053 -1.1022,24.772 -6.1228,7.4108 -17.564,9.8434 -25.656,4.114 z"
             id="path4474" />
        </g>
      </g>
      <g
         transform="matrix(1.2674752,0,0,1.2674752,698.61812,184.79814)"
         id="g4503">
        <path
           inkscape:connector-curvature="0"
           d="M 597.6,499.6 313.8,8 C 310.9,3 305.6,0 299.9,0 294.2,0 288.9,3.1 286,8 L 2.2,499.6 c -2.9,5 -2.9,11.1 0,16 2.9,5 8.2,8 13.9,8 l 567.6,0 c 5.7,0 11,-3.1 13.9,-8 2.9,-5 2.9,-11.1 0,-16 z"
           id="sign_border-5" />
        <polygon
           points="299.875,48.2 555.875,491.5 43.875,491.5 "
           transform="matrix(1,0,0,0.99591458,0.125,2.0332437)"
           id="polygon7-0"
           style="overflow:visible;fill:#f6bd16;fill-opacity:1;stroke:none" />
        <g
           transform="translate(668.93985,0)"
           id="g4345">
          <g
             transform="matrix(1.079838,0,0,1.079838,6.9109,-9.025744)"
             id="g2853">
            <path
               inkscape:connector-curvature="0"
               d="m -345.00568,132.20711 c 0,0 27.77441,44.72019 -19.62085,66.69676 -18.55697,8.60463 -43.42358,15.09235 -21.44701,57.45682"
               id="path1936"
               style="fill:none;stroke:#000000;stroke-width:8.20333099;stroke-linecap:butt;stroke-linejoin:miter;stroke-miterlimit:4;stroke-dasharray:none;stroke-opacity:1" />
            <path
               inkscape:connector-curvature="0"
               d="m -362.7458,165.56913 c 2.11822,22.50613 48.29592,16.04838 50.04303,43.15881 1.72926,26.83348 -33.48118,29.47642 -55.07381,27.53691 -67.57545,-6.06982 -50.68029,28.89325 -13.61138,22.00902"
               id="path1940"
               style="fill:none;stroke:#000000;stroke-width:8.20333099;stroke-linecap:butt;stroke-linejoin:miter;stroke-miterlimit:4;stroke-dasharray:none;stroke-opacity:1" />
          </g>
          <g
             transform="matrix(1.079838,0,0,1.079838,6.9109,-9.025744)"
             id="g1961"
             style="fill:#000000;stroke:none">
            <path
               inkscape:connector-curvature="0"
               d="m -322.5,276.78125 0,14.75 -64.0625,0 0,-14.5 -26.21875,0 0,14.5 -31.34375,0 0,110.8125 88,0 c 2.61035,2.88082 5.907,6.52113 7.6875,11.28125 4.90635,13.11697 22.91432,17.71944 38.84375,17.21875 43.9276,-1.38073 28.00556,2.8286 50.5,6.65625 16.08419,2.74698 14.68901,11.9111 59.90625,7.75 11.54211,-1.06872 18.33541,-8.237 17.5,-15.8125 -2.05041,-18.75855 -21.62537,-9.07375 -21.65625,-28.84375 -0.0232,-14.91847 -5.23367,-19.52926 -16.09375,-19.40625 -30.98545,0.35097 -34.85584,2.97688 -36.34375,-21.65625 -0.009,0.0115 -0.0225,0.0197 -0.0312,0.0312 l 0,-68.03125 -0.625,0 C -256.91912,281.31466 -259.72501,281 -265.5625,281 l -26.75,0 c -4.1925,0.22459 -5.03125,-4.21875 -5.03125,-4.21875 l -25.15625,0 z M -433.71875,303 l 157.28125,0 0,87.90625 -157.28125,0 0,-87.90625 z"
               id="rect1934"
               style="fill:#000000;fill-opacity:1;stroke:none" />
            <rect
               width="34.421135"
               height="10.061563"
               x="-317.99832"
               y="322.58246"
               id="rect1942"
               style="fill:#000000;fill-opacity:1;stroke:none" />
            <path
               inkscape:connector-curvature="0"
               d="m -414.125,310.40625 0,12.1875 -12.15625,0 0,10.0625 12.15625,0 0,12.15625 10.0625,0 0,-12.15625 12.1875,0 0,-10.0625 -12.1875,0 0,-12.1875 -10.0625,0 z"
               id="rect1944"
               style="fill:#000000;fill-opacity:1;stroke:none" />
          </g>
        </g>
      </g>
    </g>
    <flowRoot
       xml:space="preserve"
       id="flowRoot4775"
       style="font-style:normal;font-variant:normal;font-weight:bold;font-stretch:normal;font-size:180.00001526px;line-height:125%;font-family:sans-serif;-inkscape-font-specification:'sans-serif Bold';text-align:center;letter-spacing:0px;word-spacing:0px;writing-mode:lr-tb;text-anchor:middle;fill:#000000;fill-opacity:1;stroke:none;stroke-width:1px;stroke-linecap:butt;stroke-linejoin:miter;stroke-opacity:1"
       transform="translate(-80.000101,-3286.0587)"><flowRegion
         id="flowRegion4777"><rect
           id="rect4779"
           width="1771.4286"
           height="1257.1428"
           x="1257.1427"
           y="218.70648"
           style="font-style:normal;font-variant:normal;font-weight:bold;font-stretch:normal;font-size:180.00001526px;font-family:sans-serif;-inkscape-font-specification:'sans-serif Bold';text-align:center;writing-mode:lr-tb;text-anchor:middle"
           ry="0" /></flowRegion><flowPara
         id="flowPara4781"
         style="font-style:normal;font-variant:normal;font-weight:bold;font-stretch:normal;font-size:180.00001526px;font-family:sans-serif;-inkscape-font-specification:'sans-serif Bold';text-align:center;writing-mode:lr-tb;text-anchor:middle">The machines here have no brains.</flowPara><flowPara
         style="font-style:normal;font-variant:normal;font-weight:bold;font-stretch:normal;font-size:180.00001526px;font-family:sans-serif;-inkscape-font-specification:'sans-serif Bold';text-align:center;writing-mode:lr-tb;text-anchor:middle"
         id="flowPara4785" /><flowPara
         style="font-style:normal;font-variant:normal;font-weight:bold;font-stretch:normal;font-size:180.00001526px;font-family:sans-serif;-inkscape-font-specification:'sans-serif Bold';text-align:center;writing-mode:lr-tb;text-anchor:middle"
         id="flowPara4783">Please use your own.</flowPara></flowRoot>  </g>
</svg>
