<?xml version="1.0" encoding="UTF-8" standalone="no"?>
<!-- Created with Inkscape (http://www.inkscape.org/) -->

<svg
   version="1.1"
   id="svg2"
   width="3779.5332"
   height="3779.5332"
   viewBox="0 0 3779.5332 3779.5332"
   xmlns="http://www.w3.org/2000/svg"
   xmlns:svg="http://www.w3.org/2000/svg">
  <defs
     id="defs6">
    <clipPath
       clipPathUnits="userSpaceOnUse"
       id="clipPath6222">
      <path
         d="M 0,2834.646 H 2834.646 V 0 H 0 Z"
         id="path6220" />
    </clipPath>
  </defs>
  <g
     id="g10"
     transform="matrix(1.3333333,0,0,-1.3333333,0,3779.5333)">
    <path
       d="M 0,0 H 2834.645 V 2834.645 H 0 Z"
       style="display:none;fill:#ffeb00;fill-opacity:1;fill-rule:nonzero;stroke:none"
       id="path12" />
    <g
       id="g132114"
       transform="matrix(41.994723,0,0,-42.004717,212.61526,2605.0577)">
      <path
         stroke="#2b2e34"
         d="m 12,0 h 3 m 12,0 h 3 m 1,0 h 5 M 11,1 h 1 m 3,0 h 3 m 8,0 h 1 m 3,0 h 1 m 5,0 h 1 m 1,0 h 2 M 11,2 h 2 m 5,0 h 4 m 4,0 h 1 m 10,0 h 1 m 2,0 h 1 M 10,3 h 1 m 2,0 h 2 m 7,0 h 6 m 12,0 h 1 M 10,4 h 2 m 3,0 h 2 m 14,0 h 1 m 4,0 h 1 m 2,0 h 1 M 9,5 h 1 m 2,0 h 2 m 3,0 h 2 m 19,0 h 1 M 9,6 h 2 m 3,0 h 2 m 3,0 h 1 m 19,0 h 3 M 8,7 h 1 m 2,0 h 2 m 3,0 h 2 m 1,0 h 1 m 13,0 h 2 m 7,0 h 3 M 8,8 h 2 m 3,0 h 2 m 3,0 h 1 m 26,0 h 3 M 7,9 h 1 m 2,0 h 2 m 3,0 h 2 m 1,0 h 1 m 29,0 h 3 M 7,10 h 2 m 3,0 h 2 m 3,0 h 1 m 33,0 h 2 M 6,11 h 1 m 2,0 h 2 m 3,0 h 2 m 1,0 h 1 m 25,0 h 5 m 5,0 h 1 M 6,12 h 2 m 3,0 h 2 m 3,0 h 1 m 25,0 h 1 m 5,0 h 5 M 5,13 h 1 m 2,0 h 2 m 3,0 h 2 m 1,0 h 1 m 24,0 h 6 m 5,0 h 1 M 6,14 h 1 m 3,0 h 2 m 3,0 h 1 m 24,0 h 1 m 6,0 h 5 M 7,15 h 2 m 3,0 h 3 m 24,0 h 7 m 5,0 h 1 M 9,16 h 3 m 26,0 h 1 m 7,0 h 5 M 7,17 h 2 m 28,0 h 8 m 5,0 h 1 M 6,18 h 1 m 29,0 h 1 m 8,0 h 5 M 6,19 h 16 m 13,0 h 9 m 5,0 h 1 M 5,20 h 1 m 15,0 h 1 m 13,0 h 1 m 8,0 h 5 M 5,21 h 16 m 6,0 h 3 m 6,0 h 7 m 5,0 h 1 M 4,22 h 1 m 14,0 h 1 m 7,0 h 1 m 2,0 h 2 m 5,0 h 1 m 5,0 h 5 M 4,23 h 15 m 8,0 h 2 m 3,0 h 2 m 4,0 h 4 m 5,0 h 1 M 3,24 h 1 m 13,0 h 1 m 9,0 h 1 m 1,0 h 2 m 3,0 h 2 m 3,0 h 1 m 2,0 h 5 M 3,25 h 14 m 10,0 h 1 m 3,0 h 2 m 3,0 h 2 m 2,0 h 1 M 2,26 h 1 m 13,0 h 1 m 10,0 h 3 m 3,0 h 2 m 3,0 h 2 M 2,27 h 14 m 11,0 h 1 m 2,0 h 2 m 3,0 h 2 m 2,0 h 1 M 1,28 h 1 m 13,0 h 1 m 11,0 h 2 m 3,0 h 2 m 3,0 h 2 M 1,29 h 15 m 11,0 h 1 m 1,0 h 2 m 3,0 h 2 m 2,0 h 1 M 0,30 h 1 m 13,0 h 2 m 10,0 h 2 m 3,0 h 2 m 3,0 h 2 M 1,31 h 14 m 1,0 h 1 m 9,0 h 1 m 1,0 h 2 m 3,0 h 2 m 2,0 h 1 m -25,1 h 2 m 1,0 h 1 m 8,0 h 2 m 3,0 h 2 m 3,0 h 2 m -25,1 h 2 m 1,0 h 1 m 1,0 h 2 m 4,0 h 3 m 1,0 h 2 m 3,0 h 2 m 2,0 h 1 m -25,1 h 2 m 1,0 h 1 m 3,0 h 4 m 1,0 h 2 m 3,0 h 2 m 3,0 h 2 m -25,1 h 2 m 1,0 h 1 m 1,0 h 2 m 4,0 h 3 m 1,0 h 2 m 3,0 h 2 m 2,0 h 1 m -25,1 h 2 m 1,0 h 1 m 3,0 h 4 m 1,0 h 1 m 4,0 h 2 m 3,0 h 2 m -25,1 h 2 m 1,0 h 1 m 1,0 h 2 m 4,0 h 3 m 6,0 h 2 m 2,0 h 1 m -25,1 h 2 m 1,0 h 1 m 3,0 h 4 m 1,0 h 1 m 9,0 h 2 M 9,39 h 2 m 1,0 h 1 m 1,0 h 2 m 4,0 h 3 M 9,40 h 2 m 1,0 h 1 m 3,0 h 4 m 1,0 h 1 M 9,41 h 1 m 1,0 h 1 m 1,0 h 2 m 4,0 h 3 M 9,42 h 1 m 1,0 h 1 m 3,0 h 4 m 1,0 h 1 m -11,1 h 1 m 1,0 h 2 m 4,0 h 3 m -11,1 h 1 m 3,0 h 4 m 1,0 h 1 m -9,1 h 2 m 4,0 h 2 m -6,1 h 4"
         id="path131877" />
      <path
         stroke="#3bb5e6"
         d="m 12,1 h 3 m 12,0 h 3 m 1,0 h 5 M 13,2 h 5 m 9,0 h 4 m 1,0 h 4 m 2,0 h 2 M 15,3 h 7 m 6,0 h 2 m 3,0 h 2 m 3,0 h 2 M 17,4 h 13 m 3,0 h 2 m 3,0 h 1 M 19,5 h 12 m 1,0 h 4 m 1,0 h 1 M 20,6 H 39 M 20,7 h 13 m 2,0 h 7 M 19,8 H 45 M 19,9 h 29 m -30,1 h 14 m 2,0 h 17 m -33,1 h 14 m 2,0 h 9 m 5,0 h 5 M 17,12 H 42 M 17,13 H 41 M 16,14 H 40 M 15,15 H 39 M 12,16 H 38 M 9,17 H 37 M 7,18 h 29 m -14,1 h 13 m -13,1 h 13 m -14,1 h 6 m 3,0 h 6 m -16,1 h 7 m 5,0 h 5 m -18,1 h 8 m 7,0 h 4 m -20,1 h 9 m 9,0 h 3 m -22,1 h 10 m 11,0 h 2 m -23,1 h 10 m -11,1 h 11 m -11,1 h 11 m -11,1 h 11 m -11,1 h 10 m -9,1 h 9 m -9,1 h 8 m -6,1 h 4"
         id="path131879" />
      <path
         stroke="#ffffff"
         d="m 31,2 h 1 m 4,0 h 1 m -7,1 h 3 m 2,0 h 3 m -8,1 h 1 m 1,0 h 1 m 2,0 h 1 m 1,0 h 1 m -7,1 h 1 m 4,0 h 1 m -5,5 h 2 m -2,1 h 2"
         id="path131881" />
      <path
         stroke="#4c63b3"
         d="m 11,3 h 2 m -1,1 h 3 m -1,1 h 3 m -1,1 h 3 m -1,1 h 1 m 24,5 h 5 m -1,1 h 5 M 6,20 h 15 m 7,2 h 2 m -1,1 h 3 m -1,1 h 3 m -1,1 h 3 m -1,1 h 3 m -1,1 h 2 m -24,4 h 1 m -1,1 h 1 m 0,1 h 1 m -1,1 h 3 m 4,0 h 1 m -6,1 h 4"
         id="path131883" />
      <path
         stroke="#a96eb6"
         d="m 10,5 h 2 m -1,1 h 3 m -1,1 h 3 m -1,1 h 3 m -1,1 h 1 m 23,5 h 6 m -1,1 h 5 M 5,22 h 14 m 9,2 h 1 m -1,1 h 3 m -1,1 h 3 m -1,1 h 3 m -1,1 h 3 m -1,1 h 2 m -24,4 h 1 m -1,1 h 1 m 0,1 h 1 m -1,1 h 3 m 4,0 h 1 m -6,1 h 4"
         id="path131885" />
      <path
         stroke="#e83d71"
         d="m 9,7 h 2 m -1,1 h 3 m -1,1 h 3 m -1,1 h 3 m -1,1 h 1 m 22,5 h 7 m -1,1 h 5 M 4,24 h 13 m 11,3 h 2 m -1,1 h 3 m -1,1 h 3 m -1,1 h 3 m -1,1 h 2 m -24,4 h 1 m -1,1 h 1 m 0,1 h 1 m -1,1 h 3 m 4,0 h 1 m -6,1 h 4"
         id="path131887" />
      <path
         stroke="#ee2c28"
         d="m 8,9 h 2 m -1,1 h 3 m -1,1 h 3 m -1,1 h 3 m -1,1 h 1 m 21,5 h 8 m -1,1 h 5 M 3,26 h 13 m 12,3 h 1 m -1,1 h 3 m -1,1 h 3 m -1,1 h 3 m -1,1 h 2 m -24,4 h 1 m -1,1 h 1 m 0,1 h 1 m -1,1 h 3 m 4,0 h 1 m -6,1 h 4"
         id="path131889" />
      <path
         stroke="#ff542d"
         d="m 7,11 h 2 m -1,1 h 3 m -1,1 h 3 m -1,1 h 3 m 21,6 h 8 m -1,1 h 5 M 2,28 h 13 m 12,3 h 1 m -1,1 h 3 m -1,1 h 3 m -1,1 h 3 m -1,1 h 2 m -24,4 h 1 m -1,1 h 1 m 0,1 h 1 m -1,1 h 3 m 4,0 h 1 m -6,1 h 4"
         id="path131891" />
      <path
         stroke="#ff8939"
         d="m 6,13 h 2 m -1,1 h 3 m -1,1 h 3 m 26,7 h 5 m -1,1 h 5 M 1,30 h 13 m 12,3 h 1 m -1,1 h 3 m -1,1 h 3 m -1,1 h 3 m -1,1 h 2 m -24,4 h 1 m -1,1 h 1 m 0,1 h 1 m -1,1 h 3 m 4,0 h 1 m -6,1 h 4"
         id="path131893" />
    </g>
    <path
       d="M 2622.047,641.795 H 1195.137 V 216.599 h 1426.91 z"
       style="display:inline;fill:#1d1d1b;fill-opacity:1;fill-rule:nonzero;stroke:none"
       id="path6214" />
    <g
       id="g6216">
      <g
         id="g6218"
         clip-path="url(#clipPath6222)">
        <g
           id="g6224"
           transform="translate(1476.5383,510.4209)">
          <path
             d="m 0,0 c 0,-8.828 -7.392,-15.912 -15.954,-15.912 -8.858,0 -15.952,7.084 -15.952,15.912 0,8.87 7.094,15.974 15.952,15.974 C -7.392,15.974 0,8.87 0,0 M -1.191,-189.9 H -28.95 v 127.298 h -17.719 v 10.635 c 6.796,1.171 19.793,3.244 29.545,3.244 16.241,0 15.933,-13.879 15.933,-13.879 z"
             style="fill:#ffffff;fill-opacity:1;fill-rule:nonzero;stroke:none"
             id="path6226" />
        </g>
        <g
           id="g6228"
           transform="translate(1552.5627,427.4317)">
          <path
             d="m 0,0 c 7.391,20.676 27.472,34.267 42.829,34.267 32.194,0 45.787,-20.079 45.787,-52.562 v -64.389 c 0,-9.157 8.264,-13.612 17.421,-13.612 v -10.615 c -4.137,-2.073 -11.816,-3.264 -19.782,-3.264 -10.923,0 -25.398,6.221 -25.398,26.875 v 72.398 c 0,18.909 -9.157,31.29 -23.93,31.29 C 21.867,20.388 0,2.381 0,-41.352 v -65.559 H -27.759 V 20.388 h -17.72 v 10.634 c 6.787,1.171 19.794,3.245 29.525,3.245 C 0.308,34.267 0,20.388 0,20.388 Z"
             style="fill:#ffffff;fill-opacity:1;fill-rule:nonzero;stroke:none"
             id="path6230" />
        </g>
        <g
           id="g6232"
           transform="translate(1724.9807,510.4209)">
          <path
             d="m 0,0 c 0,-8.828 -7.382,-15.912 -15.943,-15.912 -8.86,0 -15.943,7.084 -15.943,15.912 0,8.87 7.083,15.974 15.943,15.974 C -7.382,15.974 0,8.87 0,0 m -1.181,-189.9 h -27.758 v 127.298 h -17.72 v 10.635 c 6.785,1.171 19.782,3.244 29.535,3.244 16.241,0 15.943,-13.879 15.943,-13.879 z"
             style="fill:#ffffff;fill-opacity:1;fill-rule:nonzero;stroke:none"
             id="path6234" />
        </g>
        <g
           id="g6236"
           transform="translate(1800.9993,458.4541)">
          <path
             d="M 0,0 H 38.682 L 36.629,-10.635 H 0 v -94.816 c 0,-13.86 7.371,-21.867 16.242,-21.867 10.624,0 17.123,4.455 23.323,11.231 l 6.797,-7.966 c -9.733,-10.329 -18.315,-17.144 -35.152,-17.144 -27.163,0 -38.969,16.548 -38.969,38.106 v 92.456 H -44.904 L -46.966,0 -25.993,6.488 -13.591,37.513 0,34.248 Z"
             style="fill:#ffffff;fill-opacity:1;fill-rule:nonzero;stroke:none"
             id="path6238" />
        </g>
        <g
           id="g6240"
           transform="translate(2013.6633,527.2579)">
          <path
             d="m 0,0 2.073,-12.382 -25.706,-9.773 v -172.181 h 63.814 l 17.123,44.309 12.402,-2.053 v -54.657 H -78.566 l -2.063,12.401 25.696,9.754 V -22.155 L -80.629,-12.382 -78.566,0 Z"
             style="fill:#ffffff;fill-opacity:1;fill-rule:nonzero;stroke:none"
             id="path6242" />
        </g>
        <g
           id="g6244"
           transform="translate(2195.1995,443.9795)">
          <path
             d="m 0,0 c -9.445,5.317 -15.358,6.797 -24.207,6.797 -18.9,0 -40.469,-15.954 -40.469,-67.058 0,-41.043 16.836,-52.583 33.088,-52.583 14.762,0 31.588,13.305 31.588,46.978 z m -93.318,-61.74 c 0,56.402 30.419,79.459 67.632,79.459 8.86,0 18.315,-0.882 25.686,-4.722 L 17.432,17.719 27.78,14.475 V -99.231 c 0,-9.158 7.083,-13.613 16.241,-13.613 v -10.615 c -4.733,-2.361 -10.636,-3.264 -16.241,-3.264 -10.348,0 -21.867,5.626 -25.994,22.175 -6.796,-14.187 -21.867,-22.175 -36.33,-22.175 -28.941,0 -58.774,17.452 -58.774,64.983"
             style="fill:#ffffff;fill-opacity:1;fill-rule:nonzero;stroke:none"
             id="path6246" />
        </g>
        <g
           id="g6248"
           transform="translate(2287.4783,337.3575)">
          <path
             d="m 0,0 c 7.392,-3.84 19.506,-6.222 31.024,-6.222 28.047,0 39.565,29.258 39.565,64.697 0,37.224 -12.997,54.944 -33.96,54.944 C 21.856,113.419 0,96.582 0,54.943 Z m -27.759,189.9 h -17.719 v 10.656 c 6.796,1.171 19.772,3.224 29.535,3.224 C 0.298,203.78 0,189.9 0,189.9 V 116.066 L -5.913,87.713 c 6.796,20.983 25.111,36.628 46.669,36.628 35.459,0 59.081,-24.207 59.081,-65.271 0,-47.264 -24.814,-79.171 -66.76,-79.171 -24.803,0 -43.702,3.86 -60.836,13.879 z"
             style="fill:#ffffff;fill-opacity:1;fill-rule:nonzero;stroke:none"
             id="path6250" />
        </g>
      </g>
    </g>
  </g>
</svg>
